<?xml version="1.0" encoding="UTF-8"?>
<!DOCTYPE svg PUBLIC "-//W3C//DTD SVG 1.1//EN" "http://www.w3.org/Graphics/SVG/1.1/DTD/svg11.dtd">
<!-- Creator: CorelDRAW 2020 (64-Bit) -->
<svg xmlns="http://www.w3.org/2000/svg" xml:space="preserve" width="2.60048in" height="0.708638in" version="1.1" style="shape-rendering:geometricPrecision; text-rendering:geometricPrecision; image-rendering:optimizeQuality; fill-rule:evenodd; clip-rule:evenodd"
viewBox="0 0 768.14 209.32"
 xmlns:xlink="http://www.w3.org/1999/xlink"
 xmlns:xodm="http://www.corel.com/coreldraw/odm/2003">
 <defs>
  <style type="text/css">
   <![CDATA[
    .fil1 {fill:#E6BA33}
    .fil0 {fill:#F7B90E}
    .fil2 {fill:white}
   ]]>
  </style>
 </defs>
 <g id="Layer_x0020_1">
  <metadata id="CorelCorpID_0Corel-Layer"/>
  <g id="_2144168371824">
   <g>
    <path class="fil0" d="M98.81 103.26c1.49,0.59 0.46,-2.12 2.64,2.38 0.94,1.95 0.6,1.24 0.59,3.29 1.19,0.32 1.7,-1.71 0.84,1.45 2.14,0.75 0.49,-0.23 1.98,1.37 0.23,0.24 0.96,1.42 0.98,1.46 1.05,2.06 0.85,1.71 1.02,3.85 1.47,0.75 0.28,-0.51 2.1,1.95 0.43,0.58 0.73,1.23 1.22,2.05l5.33 9.16c0.97,1.57 1.6,2.73 2.32,4.11 3.06,5.91 7.75,11.39 5.62,19.82 -1.22,4.82 -2.5,5.24 -5.69,7.86 -2.51,2.06 -6.02,3.3 -9.47,3.64 -6.46,0.64 -18.77,0.02 -26.57,0.06 -18.38,0.09 -36.64,-0.09 -55,-0.26 -5.91,-0.05 -6.08,-0.83 -8.31,3.89l-11.12 23.68c-2.93,6.69 0.36,2.66 -2.13,4.04 2.27,2.3 -0.14,1.88 6.64,2.05l26.31 -0.06c28.46,0.03 60.24,0.48 88.38,-0.2 4.8,-0.12 12.19,-1.96 16.8,-1.26 4.48,0.16 11.65,-4.8 14.76,-7.38 20.09,-16.66 10.13,-46.9 6.22,-49.69 -1.77,-0.97 -2.51,1.6 -1.37,-1.94 -1.06,-0.56 -1.84,1.81 -0.87,-1.56 -1.63,0.38 -1.31,0.62 -0.68,-0.94 -1.84,0.58 -1.46,0.78 -0.7,-0.97 -1.17,-0.36 -1.92,1.97 -0.84,-1.54 -1.23,-0.43 -2.12,1.88 -0.85,-1.58 -1.19,-0.46 -2.03,1.89 -0.87,-1.58 -1.09,-0.47 -1.98,1.85 -0.82,-1.55 -1.79,0.5 -1.41,0.71 -0.68,-1 -2,0.78 -1.56,0.93 -0.71,-0.99 -1.45,-0.6 -0.22,0.74 -1.43,-1.12 -1.51,-2.33 -0.52,-0.7 -0.25,-1.92 -1.65,-0.8 -0.53,-0.04 -1.74,-1.57 -2.07,-2.63 -5.91,-9.37 -6.31,-12.35 -0.97,-0.55 -0.29,0.09 -1.5,-1.01 -0.11,-0.1 -1.01,-1.11 -1.12,-1.32 -1.02,-1.9 -0.72,-0.54 -0.6,-3.23 -1.72,-0.74 -1.02,0.15 -3.47,-4.58 -1.05,-2.03 -1.59,-3 -2.75,-4.58 -7.73,-10.55 -17.33,-34.98 -23.57,-36.11l-29.04 0.02c-4.64,0.37 -5.31,1.82 -9.65,-0.13 0.06,0.19 0.19,0.44 0.25,0.56 5.05,11.78 23.92,38.63 24.11,43.74z"/>
    <path class="fil0" d="M3.54 53.9c1.05,0.34 1.86,-2.5 0.72,1.91 0.73,0.58 0.18,-0.15 1.48,1.68 0.2,0.27 1.21,1.96 1.57,2.54 1.66,2.73 1.91,2.43 1.84,5.27 2.7,1.08 8.73,14.02 10.18,16.55 5.15,9.01 29.38,48.46 29.45,52.01 2.18,-0.94 1.54,-0.95 0.67,1.16 1.06,0.22 1.15,-1.53 0.86,1.49 1.42,0.63 0.62,-0.04 1.86,1.37 4.98,5.67 -2.21,4.61 17.44,4.89 7.28,0.1 18.81,0.61 25.64,-0.17 -1.32,-6.38 -9.14,-13.11 -9.46,-19.19 -1.18,-0.19 -1.4,1.7 -0.95,-1.44 -0.18,-0.08 -0.44,-0.44 -0.51,-0.3 -0.24,0.52 -6.24,-7.16 -5.96,-10.9 -1.95,-0.84 0.2,0.64 -1.45,-1.02 -0.1,-0.1 -1.31,-1.69 -1.43,-1.89 -1.2,-2.05 -1.43,-2.67 -1.45,-4.79 -1.89,0.48 -1.3,0.64 -0.76,-1.35 -0.21,-2.05 -14,-26.65 -15.89,-28.22 -1.89,0 -1.71,0.53 -1.1,-1.15 -1.69,0.47 -1.38,0.7 -0.69,-0.91 -2.11,-0.86 -1.83,2.08 -1.51,-2.54l-1.57 -1.05c-0.74,-0.66 -0.27,-0.1 -1.14,-1.32 -4.36,-6.18 -7.71,-17.25 -1.93,-24.45 6.11,-7.62 21.7,-5.72 33.06,-5.72l57.14 0.01c2.68,-0.31 3.55,-1.84 4.59,-4.4 2.18,-5.39 0.82,-4.22 3.54,-5.48 -0.86,-3.38 -0.39,-1.25 0.83,-1.62 -0.83,-5.47 8.91,-17.18 9.02,-22.43l-59.76 -0c-8.6,-0.01 -55.88,0.43 -60.26,-0.64l-1.23 -0.59c-0.21,0.22 -0.53,0.18 -0.68,0.58l-1.31 1.02c-2.36,1.42 -3.86,1.24 -6.44,1.94l-11.92 6.42c-20.85,14.17 -11.61,36.73 -12.49,42.75z"/>
    <path class="fil1" d="M106.86 117.07c-0.17,-2.14 0.02,-1.79 -1.02,-3.85 -0.02,-0.04 -0.75,-1.22 -0.98,-1.46 -1.49,-1.59 0.17,-0.62 -1.98,-1.37 0.85,-3.16 0.35,-1.13 -0.84,-1.45 0.01,-2.04 0.35,-1.34 -0.59,-3.29 -2.18,-4.5 -1.15,-1.79 -2.64,-2.38 -0.18,-5.11 -19.06,-31.96 -24.11,-43.74 -0.05,-0.12 -0.18,-0.37 -0.25,-0.56 4.34,1.96 5.01,0.51 9.65,0.13l29.04 -0.02c6.24,1.13 15.84,25.56 23.57,36.11 1.16,1.58 1.7,2.54 2.75,4.58 2.45,4.73 1.75,3.84 3.47,4.58 -0.12,2.69 -0.42,1.32 0.6,3.23 0.11,0.21 1.01,1.22 1.12,1.32 1.21,1.11 0.53,0.46 1.5,1.01 0.4,2.98 4.24,9.73 6.31,12.35 1.21,1.54 0.08,0.77 1.74,1.57 -0.27,1.22 -1.26,-0.4 0.25,1.92 1.21,1.86 -0.02,0.52 1.43,1.12 -0.86,1.92 -1.29,1.77 0.71,0.99 -0.74,1.7 -1.12,1.5 0.68,1 -1.15,3.4 -0.26,1.08 0.82,1.55 -1.16,3.47 -0.32,1.12 0.87,1.58 -1.27,3.45 -0.39,1.15 0.85,1.58 -1.08,3.51 -0.32,1.18 0.84,1.54 -0.77,1.75 -1.14,1.55 0.7,0.97 -0.63,1.56 -0.96,1.33 0.68,0.94 -0.97,3.37 -0.2,1 0.87,1.56 -1.14,3.54 -0.41,0.97 1.37,1.94 -0.64,-3.54 -0,-1.85 -1.37,-1.94 0.3,-2.71 0.6,-1.48 -0.87,-1.56 0.44,-1.65 0.9,-1.57 -0.68,-0.94 0.6,-1.87 1.12,-1.85 -0.7,-0.97 0.58,-3.02 0.58,-1.41 -0.84,-1.54 0.62,-3.2 0.53,-1.46 -0.85,-1.58 0.47,-3.07 0.52,-1.47 -0.87,-1.58 0.4,-2.81 0.58,-1.45 -0.82,-1.55 0.54,-1.84 1.09,-1.84 -0.68,-1 0.72,-1.9 1.2,-1.81 -0.71,-0.99 0.15,-1.49 0.43,-0.74 -0.2,-2.13 -0.89,-1.99 0.17,-0.42 -1.48,-0.92 0.09,-3.1 -5.25,-12.71 -8.04,-13.92 0.03,-1.76 0.39,-1.85 -0.91,-3.83 -2.52,-3.82 0.08,-0.87 -2.31,-1.73 0.08,-3.75 -7.86,-15.72 -10.17,-19.66 -19.61,-33.55 -12.14,-28.1 -31.68,-28.03 -9.74,0.03 -20.1,-0.42 -29.74,0.14 0.01,4.49 19.5,34.19 23.38,41.6 1.72,3.27 1.64,4.03 4.08,4.88 -0.05,2.03 -0.46,1.76 0.91,3.86 2.06,3.16 0.48,1.07 2.32,1.81 -0.74,3.14 -0.48,1.33 0.84,1.45 -0,2.33 -0.26,2.17 1.25,4.42 2.77,4.15 0.55,1.45 2.73,2.26 -0.16,3.18 1.35,4.53 3.04,7.32 7.99,13.13 26.2,39.09 -7.99,39.24 -27.22,0.13 -55.55,-0.83 -82.61,0.1 -3.34,7.57 -15.68,29.86 -16.81,36.57 7.72,1.18 59.6,0.47 71.95,0.47 11.84,0 23.69,0.05 35.53,-0 5.92,-0.02 11.86,0.13 17.77,-0.1 4.27,-0.16 12.19,-0.28 15.53,-3.09 -4.61,-0.7 -12,1.15 -16.8,1.26 -28.14,0.68 -59.92,0.23 -88.38,0.2l-26.31 0.06c-6.78,-0.17 -4.38,0.26 -6.64,-2.05 2.49,-1.38 -0.8,2.65 2.13,-4.04l11.12 -23.68c2.23,-4.71 2.4,-3.94 8.31,-3.89 18.36,0.17 36.62,0.35 55,0.26 7.8,-0.04 20.11,0.57 26.57,-0.06 3.46,-0.34 6.96,-1.58 9.47,-3.64 3.19,-2.62 4.47,-3.04 5.69,-7.86 2.13,-8.42 -2.55,-13.91 -5.62,-19.82 -0.72,-1.38 -1.35,-2.54 -2.32,-4.11l-5.33 -9.16c-0.49,-0.83 -0.79,-1.47 -1.22,-2.05 -1.82,-2.45 -0.63,-1.2 -2.1,-1.95z"/>
    <path class="fil1" d="M148.61 24.86c-1.22,0.37 -1.69,-1.76 -0.83,1.62 -2.72,1.26 -1.36,0.09 -3.54,5.48 -1.04,2.56 -1.91,4.09 -4.59,4.4l-57.14 -0.01c-11.36,0 -26.96,-1.9 -33.06,5.72 -5.78,7.2 -2.43,18.27 1.93,24.45 0.87,1.23 0.4,0.66 1.14,1.32l1.57 1.05c-0.32,4.62 -0.6,1.68 1.51,2.54 -0.69,1.62 -1,1.38 0.69,0.91 -0.61,1.67 -0.78,1.15 1.1,1.15 -0.15,-1.79 0.41,-1.67 -1.1,-1.15 0.52,-1.68 0.94,-1.57 -0.69,-0.91 -0.04,-4.56 0.49,-1.89 -1.51,-2.54 -0.03,-7.06 -11.09,-14.04 -4.01,-24.64 4.92,-7.37 15.78,-6.3 26.79,-6.28 10.84,0.02 60.26,1.28 66.39,-0.46 0.73,-0.75 0.42,-0.11 1.51,-1.93 1.61,-2.68 3.2,-6.32 3.02,-9.1 1.39,-0.19 1.65,1.69 0.83,-1.62 1.49,-0.71 0.31,0.78 2.04,-2l4.3 -9.41c1.92,-4.03 4.68,-8.17 5.35,-12.81 -25.96,-1.41 -76.49,-0.05 -107.66,-0.23 -3.09,-0.02 -10.31,-0.4 -12.89,0.36 -1.74,0.51 -1.14,0.29 -2.14,1 4.38,1.07 51.66,0.63 60.26,0.64l59.76 0c-0.1,5.25 -9.85,16.96 -9.02,22.43z"/>
    <path class="fil1" d="M3.54 53.9c-0.94,3.64 -0.55,1.55 0.72,1.91 -0.29,2.8 0.18,3.19 1.49,5.59 0.28,0.52 1.2,2.12 1.55,2.51 1.34,1.52 0.2,0.7 1.85,1.39 -0.1,3.52 6.81,14.42 9.09,18.3 2.8,4.76 27.15,48.85 30.53,50.26 -0.77,1.95 -1.33,1.86 0.67,1.16 -0.92,3 -0.56,1.17 0.86,1.49 -0.06,3.48 2.42,5.29 3.94,8.21l43.63 -0.18c-0.21,-2.8 -7.32,-15.93 -9.78,-19.18 -2.23,-2.94 -0.17,-1.05 -2.3,-1.95 0.95,-3.04 0.57,-1.16 -0.95,-1.44 0.08,-3.02 -0.93,-3.61 -2.48,-6.28 -0.49,-0.85 -1.42,-2.65 -1.75,-3.09 -2.31,-3.03 -0.16,-1.02 -2.24,-1.84 0.05,-2.53 -0,-2.37 -1.55,-4.87 -0.49,-0.78 -0.69,-1.11 -1.4,-1.83 -1.34,-1.37 0.2,-0.21 -1.37,-1.02 0.5,-1.69 0.9,-1.35 -0.76,-1.35 -0.54,1.99 -1.12,1.83 0.76,1.35 0.02,2.12 0.25,2.74 1.45,4.79 0.12,0.2 1.33,1.8 1.43,1.89 1.65,1.66 -0.51,0.19 1.45,1.02 -0.28,3.74 5.71,11.42 5.96,10.9 0.07,-0.14 0.33,0.22 0.51,0.3 -0.46,3.14 -0.23,1.24 0.95,1.44 0.32,6.08 8.13,12.81 9.46,19.19 -6.83,0.78 -18.37,0.27 -25.64,0.17 -19.65,-0.27 -12.46,0.78 -17.44,-4.89 -1.24,-1.41 -0.45,-0.74 -1.86,-1.37 0.29,-3.02 0.2,-1.27 -0.86,-1.49 0.87,-2.11 1.5,-2.09 -0.67,-1.16 -0.07,-3.55 -24.3,-43 -29.45,-52.01 -1.44,-2.52 -7.48,-15.47 -10.18,-16.55 0.07,-2.85 -0.18,-2.55 -1.84,-5.27 -0.36,-0.59 -1.37,-2.27 -1.57,-2.54 -1.3,-1.83 -0.75,-1.1 -1.48,-1.68 1.14,-4.41 0.32,-1.57 -0.72,-1.91 0.88,-6.01 -8.36,-28.58 12.49,-42.75l11.92 -6.42c2.58,-0.7 4.08,-0.52 6.44,-1.94l1.31 -1.02c0.15,-0.4 0.47,-0.37 0.68,-0.58 -14.33,1.03 -24.77,8.46 -30.31,16.89 -5.2,7.9 -7.11,17.78 -5.52,27.59 0.5,3.09 0.92,6.81 2.99,8.23z"/>
   </g>
   <g>
    <path class="fil2" d="M576.75 125.06c1.24,0 0.91,-0.26 0.64,1.04l0.56 1.07 0.99 0.77 49.02 0.02 -0.49 -82.95 -22.46 -0.08 -0.32 81.51c-1.86,0.04 -0.44,0.25 -1.14,-0.98l-31.5 -41.45c3.88,-7.18 30.06,-34.99 30.93,-39.15 -6.33,-0.27 -15.16,-0.4 -21.43,-0.11 -4.05,0.19 -4.66,1.96 -6.66,4.3l-14.84 17.46c-3.55,3.92 -5.74,8.13 -9.94,10.99l-0.11 -65.48 -23.06 0.58 0.2 115.41 22.79 -0.05 0.34 -37.17c4.46,5.36 9.04,11.27 13.23,16.97l13.26 17.31z"/>
    <path class="fil2" d="M331.2 63.51c29.13,-5.45 33.59,41.31 7.02,46.02 -13.21,2.34 -23.51,-7.73 -24.82,-19.06 -1.67,-14.5 5.52,-24.66 17.8,-26.96zm-16.64 -11.82c0,1.34 0.36,1.06 -0.91,0.98 -1.57,1.33 -0.6,0.75 -1.15,-0.03l-0.36 -7.68 -20.68 0.56 0.1 111.26 21.88 -0.16 -0.23 -33.93c0.33,-1.83 0.69,-1.72 0.82,-1.94 5.56,4.47 10.69,8.47 20.42,9.41 9.13,0.88 18.03,-1.52 24,-5.23 27.95,-17.39 25.92,-61.97 -0.27,-76.76 -14.37,-8.12 -33.24,-7.76 -43.62,3.52z"/>
    <path class="fil2" d="M202.41 103.38c9.39,40.51 93.47,36.71 81.91,-14.47 -2.31,-10.22 -9.6,-16.21 -18.31,-20.39 -8.45,-4.05 -19.69,-6.3 -27.62,-10.36 -13.84,-7.07 -8.84,-19.5 0.97,-21.7 15.96,-3.58 20.8,9.91 24.07,13.79 2.21,-0.75 18.96,-8.77 19.97,-9.87 -4.5,-17.3 -26.63,-29.44 -50.66,-24.2 -10.45,2.28 -18.48,9.04 -22.24,16.5 -4.88,9.67 -5.72,21.09 -0.09,30.85 10.96,19.01 38.67,16.9 49.04,27.67 3.97,4.12 3.18,10.72 -0.17,14.49 -4.86,5.48 -26.32,9.71 -35.49,-9.45l-1.54 -2.64c-4.42,1.77 -16.59,7.11 -19.82,9.78z"/>
    <path class="fil2" d="M744.73 92.88c-2.65,11.26 -12.28,20.16 -26.79,16.28 -11.21,-3 -18.21,-15.71 -14.57,-29.39 7.44,-27.93 48.73,-18.2 41.36,13.12zm1.2 27.81l-0.04 7.19 22.25 -0.01 -0.02 -83.27 -21.86 -0.02 -0.08 8.94c-3.78,-1.36 -18.98,-19 -45.21,-5.22 -38.68,20.31 -21.58,89.22 24.69,81.9 11.24,-1.78 13.12,-5.78 20.27,-9.52z"/>
    <path class="fil2" d="M422.35 63.45c12.96,-1.86 23.1,8.27 24.17,19.9 1.27,13.69 -6.51,24.39 -17.7,26.29 -29.51,5 -35.32,-42.04 -6.48,-46.19zm24.97 -9.95c-1.94,-0.41 -1.14,-0.25 -2.66,-1.33l-6.79 -4.51c-22.81,-12.82 -57.63,3.09 -57.3,39.59 0.29,32.83 31.74,53.09 57.9,38.56 3.27,-1.82 5.61,-4.85 8.91,-5.78l-0.25 7.91 21.6 0.1 0.05 -83.27 -21.36 0.03 -0.11 8.7z"/>
    <path class="fil2" d="M659.31 128.04c-0.82,-13.58 -0.5,-30.35 -0.15,-44.08 0.41,-16.11 7.59,-18.64 22.88,-19.84 1.21,-3.41 0.83,-16.99 0.43,-21.17 -14.03,-0.58 -16.85,3.76 -24.03,10.3 0.06,-3.56 0.51,-3.89 -0.42,-6.98 -0.05,-0.18 -0.26,-0.28 -0.31,-0.65 -0.04,-0.36 -0.2,-0.44 -0.34,-0.8l-20.48 0.02c-1.65,7.15 -0.07,68.85 -0.63,83.1l23.04 0.09z"/>
    <path class="fil2" d="M500.63 52.47c-0.69,-9.47 3.9,-7.85 -22.08,-7.69l-0.28 83.25 23.08 -0.08c-0.69,-13.76 -0.33,-29.23 -0.22,-43.18 0.14,-16.9 7.05,-19.36 22.76,-20.53l0.09 -21.53c-15.54,-1.04 -19.39,7.02 -23.34,9.76z"/>
    <path class="fil2" d="M613.16 2.99c-20.06,5.29 -12.24,33.81 7.01,29.19 7.22,-1.73 13.01,-8.43 10.87,-17.8 -1.58,-6.9 -9.53,-13.59 -17.89,-11.39z"/>
    <path class="fil2" d="M385.81 168.7l-2.07 -0.59c-0.36,-0.05 -1.94,-0.1 -2.36,-0.11 -1.87,-0.02 -3.91,0.09 -5.82,0.09 -0.01,-3.26 0.89,-5.95 -1.5,-7.32 -2.35,0.67 -1.82,-0.66 -2.17,6.41 -2.93,2.52 -1.38,-0.95 -3.91,2.42 3.57,3.14 1.57,0.78 3.93,2.42 0.18,10.59 -2.48,21.93 5.16,24.56 6.82,2.34 7.02,-1.11 7.04,-1.14 -2.56,-3.88 -3.3,0.73 -8.27,-3.76l-0.12 -20.4 8.84 -0.04c-0.47,2.78 5.59,15.37 7.02,18.71 4.45,10.4 1.58,6.1 -1.7,19.37 5.03,-0.33 5.18,-4.91 6.73,-9.15 3.37,-9.24 10.92,-23.77 12.56,-32.39 -4.5,0.55 -3.72,0.47 -5.38,4.99 -0.87,2.38 -1.5,4.24 -2.43,6.44 -1.78,4.25 -3.32,8.58 -4.64,12.94 -2.18,-2.39 -3.86,-8.13 -5.19,-11.67 -1.2,-3.17 -3.56,-11.08 -5.71,-11.77z"/>
    <path class="fil2" d="M711.26 172.09c-13.51,7.02 -4.83,26.9 8.87,21.3 11.72,-4.79 4.92,-28.46 -8.87,-21.3z"/>
    <path class="fil2" d="M489.76 171.9c15.06,-7.08 19.6,18.46 7.77,21.84 -12.73,3.65 -20.4,-15.91 -7.77,-21.84zm14.56 0.32c-4.1,-2.57 -9.41,-7.04 -16.93,-3.23 -9.64,4.88 -11.01,21.88 0.65,27.2 6.07,2.77 13.35,0.43 15.53,-3.76 2.73,4.08 -2.41,2.97 2.93,4.38 1.93,-3.05 0.95,-2.54 1.03,-2.95 0.06,-0.33 0.13,-2.02 0.14,-2.42l-0.04 -15.37c0.01,-3.49 -0,-7.01 0.05,-10.5 0.18,-11.11 0.02,-7.5 -1.98,-8.27 -2.35,1.45 -0.88,-0.8 -1.45,2.62l0.08 12.31z"/>
    <path class="fil2" d="M234.34 185.16c-4.02,0.82 -1.79,-0.14 -4.08,3.81 -2.82,4.87 -9.19,6.27 -14.91,4.4 -6.73,-2.21 -10.19,-7.88 -10.01,-16.5 0.3,-14.67 16.17,-17.89 22.91,-11.69 4.22,3.89 0.75,5.02 7.47,5 -2.89,-16.08 -34.96,-16.93 -34.3,8.24 0.48,18.37 21.07,25.08 31.88,12.7 5.21,-5.96 1.04,-5.95 1.04,-5.96z"/>
    <path class="fil2" d="M428.91 171.83c16.06,-5.6 19.15,17.38 7.9,21.76 -14.29,5.55 -19.87,-17.58 -7.9,-21.76zm14.07 0.73c-5.55,-9.14 -24.53,-5.67 -24.33,9.93 0.09,7.29 2.91,11.5 8.01,13.73 5.62,2.47 12.3,1.93 16.03,-4.22l1 3.26c0.84,1.55 -1.84,1.11 2.25,1.54 2.17,-2.51 1.1,-10.31 1.12,-14.28 0.02,-3.83 0.84,-12.36 -1.12,-14.44 -4.67,0.47 -1.29,0.56 -2.95,4.47z"/>
    <path class="fil2" d="M254.3 180.73c0.52,-12.89 19.28,-13.08 19.1,-0.1l-19.1 0.1zm11.54 3.15c2.16,0.01 4.36,0.06 6.51,0.06 1.04,0 2.04,0.01 3.07,-0.14 2.93,-0.43 0.6,0.03 1.79,-0.57 2.22,-6.78 -4.49,-14.45 -10.48,-15.39 -8.03,-1.26 -14.72,3.36 -15.98,10.99 -3.27,19.75 21.38,25.87 26.35,9.18 -5.16,-0.48 -3.06,1.16 -6.35,4.25 -2.94,2.76 -15.08,5.27 -16.71,-8.42l11.79 0.04z"/>
    <path class="fil2" d="M649.24 184.13c-1.19,-17.06 19.24,-16.91 20.54,-3.22 1.56,16.44 -19.54,17.54 -20.54,3.22zm20.37 -11.62c-1.93,-1.62 -3.36,-3.52 -6.68,-4.38 -8.6,-2.24 -18.18,3.66 -17.6,15.18 0.73,14.38 18.49,18.88 24.34,8.09 1.46,3.51 -1.3,5.54 3.42,5.09 0.95,-4.41 0.23,-16.66 0.35,-22.91 0.07,-3.53 0.89,-4.3 -1.39,-5.6 -3.24,1.34 -0.58,1.92 -2.44,4.54z"/>
    <path class="fil2" d="M303.2 186.56c-3.66,13.33 -23.67,8.55 -20.13,-7.86 2.64,-12.26 24.98,-9.78 20.13,7.86zm-0.54 -14.02c-1.59,0.35 -1.37,0.77 -1.12,-0.74 -1.53,0.34 -0.98,0.52 -0.98,-1.28 -2.46,-5.59 -23.41,-4.56 -21.45,14.12 1.68,15.99 19.13,14.86 23.89,7.5 0.68,1.18 -0.1,2.51 1.44,3.87 3.46,3.05 2.56,-0.73 2.71,-1.15 0.16,-0.42 0.63,-24.36 -0.41,-26.82 -0.01,0.03 -1.04,2.01 -1.11,2.11 -0.36,0.53 -0.96,0.92 -1.18,1.07 1.39,2.32 1.07,3.42 1.12,-0.01l0.13 2.55c-1.05,-0.89 -2.28,-1.07 -3.04,-1.21z"/>
    <path class="fil2" d="M595.04 185.75c-3.33,-18.04 18.63,-18.82 20.65,-5.66 2.52,16.43 -18.16,19.13 -20.65,5.66zm23.74 1.62c5.09,-22.33 -21.66,-25.78 -27.04,-10 -7,20.53 22.96,27.88 27.04,10z"/>
    <path class="fil2" d="M734.23 196.92c4.07,-0.48 2.84,-2.49 2.72,-7.11 -0.22,-8.1 -1.42,-17.84 7.79,-18.66 14.58,-1.31 7.74,15.93 10.21,25.61l2.69 0.08c1.48,-3.82 1.34,-20.39 -1.22,-24.29 -4.72,-7.2 -14.73,-5.99 -18.92,-0.54 -1.48,-2.47 0.22,-3.34 -3.32,-3.89 -1.12,1.99 -1.55,22.02 -0.83,26.47l0.89 2.34z"/>
    <path class="fil2" d="M455.33 196.77c1.76,-9.88 -3.63,-26.5 9.97,-25.79 14.42,0.75 4.09,19.94 8.89,25.78 3.42,-0.21 2.74,-0.04 2.83,-4.44 0.11,-5.45 0.38,-15.52 -1.89,-19.56 -3.61,-6.41 -15.44,-6.68 -18.96,-0.98 -1.18,-3.43 0.95,-3.18 -2.98,-3.54 -1.51,2.36 -1.52,24.99 -0.49,28.38l2.62 0.15z"/>
    <path class="fil2" d="M553.93 178.07c0.94,2.06 0.69,6.33 0.65,9.29 -0.15,12.54 -0.8,8.2 1.98,9.41 1.52,-2.46 1.13,-5.56 1.22,-9.41 0.08,-3.36 -0.05,-6.67 -0.2,-10.01 -0.48,-4.71 -2.56,-8.13 -6.87,-9.27 -2.3,-0.61 -5.5,-0.65 -7.83,-0.19 -3.08,0.61 -3.53,0.98 -4.79,3.45 -2.51,-2.83 0.27,-2.82 -3.34,-3.32 -1.42,1.55 -0.98,0.54 -1.24,3.22l-0.05 12.09c0.01,11.86 -1.39,13.34 2.91,13.49 2.06,-5.34 -1.32,-16.64 2.36,-22.45 3.6,-5.68 14.21,-4.43 15.2,3.71z"/>
    <path class="fil2" d="M564.64 196.7c2.97,-1.25 1.48,1.5 2.06,-3.56 0.76,-6.67 -3.95,-21.9 8.44,-22.14 16.26,-0.31 4.81,22.07 10.5,25.65 1.64,-0.76 2.03,0.13 1.96,-6.01 -0.03,-2.18 -0.07,-4.32 -0.06,-6.51 0.02,-4.51 0.25,-8.59 -1.99,-12.01 -4.48,-6.81 -13.77,-4.89 -18.65,-0.35 -1.84,-3.87 1.51,-3.31 -3.07,-3.52 -1.49,2.75 -0.63,16.58 -0.76,22.38 -0.13,6.31 0.33,5.37 1.57,6.06z"/>
    <path class="fil2" d="M619.79 168.22c0.77,4.2 6.21,17.67 8.37,22.65 3.17,7.31 2.16,5.84 4.43,5.99 3.59,0.23 5.9,-10.01 7.22,-13.51 1.5,-3.99 5.32,-11.62 5.93,-15.35 -5.35,0.24 -3.69,0.2 -7.88,11.09 -1.58,4.11 -2.73,10.13 -5.47,13.03 -1.37,-4.22 -3.35,-8.73 -5.09,-13.21 -4.58,-11.79 -2.1,-10.8 -7.51,-10.67z"/>
    <path class="fil2" d="M333.45 167.93c0.57,3.98 4.2,11.88 5.95,16.06 6.83,16.28 6.74,18.97 14.78,-1.21 1.42,-3.57 5.55,-12.64 5.79,-14.55l-3.52 -0c-2.85,5.37 -6.83,19.75 -9.86,23.84 -1.62,-2.49 -3.99,-9.46 -5.33,-13.05 -4.12,-11.06 -2.64,-10.69 -7.82,-11.09z"/>
    <path class="fil2" d="M683.72 171.39l8.53 -0.61c-1.95,-4.34 -3.28,-2.26 -8.6,-2.98 -0.02,-0.87 0.03,-4.07 -0.11,-4.66 -0.92,-3.8 0.82,-1.3 -1.8,-2.52 -1.83,1.08 -1.13,-1.46 -1.6,6.56 -3.11,1.62 -2.34,-0.58 -4.21,2.42 1.87,3.43 0.45,0.52 4.06,2.42 0.36,12.66 -2.58,23.03 5.38,24.68 5.41,1.12 6.28,0.17 6.65,-1.61 -2.4,-2.27 -2.6,-0.45 -7.24,-2 -1.99,-5.71 -1.12,-14.85 -1.05,-21.71z"/>
    <path class="fil2" d="M318.72 193.3c-2.02,-5.53 -1.43,-15.12 -1.23,-22.12 2.9,0.05 5.74,0.68 7.88,-0.78 -0.83,-3.67 -3.84,-2.47 -7.95,-2.39 -0.05,-2.94 0.38,-5.07 -0.7,-7.4 -3.92,0.95 -2.38,1.96 -2.61,6.75l-4.69 1.42c1.72,1.99 -3.5,-0.23 4.4,3.23 0.12,5.03 -0.61,15.08 0.24,19.39 0.99,4.97 8.73,7.78 11.85,4.03 -1.47,-2.65 0.41,-1.03 -3.46,-1.72 -1.04,-0.19 -2.61,-0.19 -3.73,-0.41z"/>
    <path class="fil2" d="M313.45 156.63c1.19,-2.13 0.57,-15.01 0.57,-17.72 -0.01,-6.07 0.12,-12.09 0.02,-18.16 -0.13,0.22 -0.49,0.12 -0.82,1.94l0.23 33.93 -21.88 0.16 -0.1 -111.26 20.68 -0.56 0.36 7.68c0.55,0.77 -0.42,1.36 1.15,0.03 1.27,0.08 0.91,0.35 0.91,-0.98l-0.91 0.98 -1.15 -0.03 -0.36 -7.68 -20.87 -0.14c-0.92,3.29 -1.15,107.86 -0.16,112.41 3.87,0.43 7.95,0.02 11.88,0.02 2.68,-0 8.2,0.57 10.46,-0.64z"/>
    <path class="fil2" d="M240 196.85c3.97,-0.61 2.73,-0.68 2.62,-11.1 -0.04,-4.01 -0.56,-8.87 1.88,-11.68 2.46,-2.84 9.43,-2.51 6.94,-5.41 -0.98,-1.14 1.49,-0.94 -2.45,-0.91 -2.57,0.02 -4.68,2.34 -5.79,4.4l-0.5 -1.27c-1.5,-3.53 0.06,-2.44 -2.7,-2.72 -2.1,2.75 -1.02,16.39 -1.06,22.46 -0.03,4.49 -0.31,4.64 1.06,6.23z"/>
    <path class="fil2" d="M526.81 196.85c0.86,-2.16 0.68,-34.39 0.52,-35.36 -0.62,-3.5 0.15,-1.84 -2.25,-2.13 -2.08,2.51 -0.88,23.73 -0.98,30.44 -0.07,4.72 -1.34,6.55 2.72,7.05z"/>
    <path class="fil2" d="M364.36 167.97c-3.51,0.55 -2.78,0.82 -2.8,5.64 -0.02,5.99 -0.95,20.68 1.18,23.23l1.61 -0.02c2.09,-2.61 0.91,-16.22 1.03,-22.38 0.17,-8.27 -0.07,-5.33 -1.03,-6.47z"/>
    <path class="fil2" d="M330.45 168.01c-3.66,0.42 -2.79,1.08 -2.71,5.6 0.11,6.7 -1.04,20.26 1.1,23.27 4.17,-0.48 2.69,-2.46 2.65,-13.55 -0.01,-3.91 0.61,-12.96 -1.03,-15.32z"/>
    <path class="fil2" d="M697.08 168c-3.9,0.26 -3.02,0.92 -3.06,5.58l0.36 21.95c1.2,2.22 -2.2,1.03 2.82,1.44 0.79,-2.99 0.93,-25.78 -0.13,-28.96z"/>
    <path class="fil2" d="M557.59 177.35c0.15,3.34 0.28,6.65 0.2,10.01 -0.09,3.85 0.29,6.95 -1.22,9.41 -2.78,-1.21 -2.13,3.13 -1.98,-9.41 0.04,-2.96 0.29,-7.23 -0.65,-9.29l0.22 19.56 3.22 -0.54c1.72,-3.17 1.42,-16.55 0.22,-19.73z"/>
    <path class="fil2" d="M694.02 157.65c-2.08,3.47 -0.86,5.2 3.8,4.5 1.01,-3.13 0.28,-5.28 -3.8,-4.5z"/>
    <path class="fil2" d="M327.79 158.03c-1.1,1.1 -1.09,2.74 -0.04,3.79 1.98,1.98 3.25,-0.01 3.62,-0.25 1.4,-3.36 -1.56,-5.54 -3.58,-3.54z"/>
    <path class="fil2" d="M365.15 157.52c-6.38,-0.3 -5.06,6.57 0.19,4.15 1.22,-2.62 0.91,-1.71 -0.19,-4.15z"/>
    <path class="fil2" d="M302.66 172.54c-0.06,-1.34 0.26,-1.02 -1.12,-0.74 0.25,-1.34 0.47,-0.85 -0.98,-1.28 0,1.79 -0.55,1.62 0.98,1.28 -0.25,1.51 -0.47,1.09 1.12,0.74 0.76,0.14 1.99,0.32 3.04,1.21l-0.13 -2.55c-0.05,3.44 0.26,2.33 -1.12,0.01 0.22,-0.15 0.82,-0.54 1.18,-1.07 0.07,-0.1 1.1,-2.09 1.11,-2.11l-2.95 0.02c0,0 -0.12,2.27 -0.14,2.36 -0.41,1.92 -0.14,0.75 -0.99,2.12z"/>
   </g>
  </g>
 </g>
</svg>
